<svg xmlns="http://www.w3.org/2000/svg" viewBox="0 0 1440 320"><path fill="#ff5500" fill-opacity="1" d="M0,0L26.7,0C53.3,0,107,0,160,26.7C213.3,53,267,107,320,128C373.3,149,427,139,480,112C533.3,85,587,43,640,21.3C693.3,0,747,0,800,37.3C853.3,75,907,149,960,154.7C1013.3,160,1067,96,1120,64C1173.3,32,1227,32,1280,26.7C1333.3,21,1387,11,1413,5.3L1440,0L1440,320L1413.3,320C1386.7,320,1333,320,1280,320C1226.7,320,1173,320,1120,320C1066.7,320,1013,320,960,320C906.7,320,853,320,800,320C746.7,320,693,320,640,320C586.7,320,533,320,480,320C426.7,320,373,320,320,320C266.7,320,213,320,160,320C106.7,320,53,320,27,320L0,320Z"></path></svg>